<!--?xml version="1.0" encoding="us-ascii" standalone="no"?--><svg xmlns="http://www.w3.org/2000/svg" xmlns:xlink="http://www.w3.org/1999/xlink" contentstyletype="text/css" height="191px" preserveAspectRatio="none" style="width:330px;height:191px;background:#FFFFFF;" version="1.1" viewBox="0 0 330 191" width="330px" zoomAndPan="magnify"><defs></defs><g><line style="stroke:#181818;stroke-width:0.5;stroke-dasharray:5.0,5.0;" x1="28" x2="28" y1="36.2969" y2="156.6953"></line><line style="stroke:#181818;stroke-width:0.5;stroke-dasharray:5.0,5.0;" x1="176.5" x2="176.5" y1="36.2969" y2="156.6953"></line><rect fill="#E2E2F0" height="30.2969" rx="2.5" ry="2.5" style="stroke:#181818;stroke-width:0.5;" width="46" x="5" y="5"></rect><text fill="#000000" font-family="sans-serif" font-size="14" lengthAdjust="spacing" textLength="32" x="12" y="24.9951">User</text><rect fill="#E2E2F0" height="30.2969" rx="2.5" ry="2.5" style="stroke:#181818;stroke-width:0.5;" width="46" x="5" y="155.6953"></rect><text fill="#000000" font-family="sans-serif" font-size="14" lengthAdjust="spacing" textLength="32" x="12" y="175.6904">User</text><rect fill="#E2E2F0" height="30.2969" rx="2.5" ry="2.5" style="stroke:#181818;stroke-width:0.5;" width="123" x="115.5" y="5"></rect><text fill="#000000" font-family="sans-serif" font-size="14" lengthAdjust="spacing" textLength="109" x="122.5" y="24.9951">Linkers Website</text><rect fill="#E2E2F0" height="30.2969" rx="2.5" ry="2.5" style="stroke:#181818;stroke-width:0.5;" width="123" x="115.5" y="155.6953"></rect><text fill="#000000" font-family="sans-serif" font-size="14" lengthAdjust="spacing" textLength="109" x="122.5" y="175.6904">Linkers Website</text><polygon fill="#181818" points="165,63.4297,175,67.4297,165,71.4297,169,67.4297" style="stroke:#181818;stroke-width:1.0;"></polygon><line style="stroke:#181818;stroke-width:1.0;" x1="28" x2="171" y1="67.4297" y2="67.4297"></line><text fill="#000000" font-family="sans-serif" font-size="13" lengthAdjust="spacing" textLength="65" x="35" y="62.3638">Input data</text><line style="stroke:#181818;stroke-width:1.0;" x1="177" x2="219" y1="96.5625" y2="96.5625"></line><line style="stroke:#181818;stroke-width:1.0;" x1="219" x2="219" y1="96.5625" y2="109.5625"></line><line style="stroke:#181818;stroke-width:1.0;" x1="178" x2="219" y1="109.5625" y2="109.5625"></line><polygon fill="#181818" points="188,105.5625,178,109.5625,188,113.5625,184,109.5625" style="stroke:#181818;stroke-width:1.0;"></polygon><text fill="#000000" font-family="sans-serif" font-size="13" lengthAdjust="spacing" textLength="139" x="184" y="91.4966">Generate prefilled link</text><polygon fill="#181818" points="39,134.6953,29,138.6953,39,142.6953,35,138.6953" style="stroke:#181818;stroke-width:1.0;"></polygon><line style="stroke:#181818;stroke-width:1.0;stroke-dasharray:2.0,2.0;" x1="33" x2="176" y1="138.6953" y2="138.6953"></line><text fill="#000000" font-family="sans-serif" font-size="13" lengthAdjust="spacing" textLength="125" x="45" y="133.6294">Display prefilled link</text><!--SRC=[NOmx2e1030NxFKMmzm8MLe88jc8TDK9mMK8s5jxU5VntZtd32Ahno8B1e8kaJbuWQpaif15w6Y8RPO3tTkxG8IylK40JP3MOqD2Tx7FN54WnGL6QsNkQmAV-uoRvQ1PGSHIFsq_S0G00]--></g></svg>